# xmcd
#
# Track frame offsets: 
#        150
#        20657
#        36772
#        56177
#        77907
#        98547
#        117442
#        134400
#        155777
#        179895
#        202325
#        222732
#        244442
#        264937
#        286867
#        308162
#        327382
#
# Disc length: 4670 seconds
#
# Revision: 7
# Processed by: cddbd v1.5.2PL0 Copyright (c) Steve Scherf et al.
# Submitted via: ExactAudioCopy v1.0b1
#
DISCID=12123c11
DTITLE=Whitney Houston - The Greatest Hits (Disc-2 - Throw Down)
DYEAR=2000
DGENRE=R&B
TTITLE0=If I told you that (with George Michael)
TTITLE1=Fine
TTITLE2=My love is your love
TTITLE3=It's not right but it's ok
TTITLE4=Heartbreak hotel
TTITLE5=Step by step
TTITLE6=Queen of the night (CJ Mackintosh Mix)
TTITLE7=I'm every woman
TTITLE8=Love will save the day
TTITLE9=I'm your baby tonight
TTITLE10=So emotional
TTITLE11=I wanna dance with somebody (who loves me)
TTITLE12=How will I know
TTITLE13=I will always love you (Hex Hector Mix)
TTITLE14=Greatest love of all (Club 69 Mix)
TTITLE15=It's not right but it's ok (Thunderpuss mix)
TTITLE16=I'm your baby tonight (Dronez mix)
EXTD=YEAR: 2000
EXTT0=
EXTT1=
EXTT2=
EXTT3=
EXTT4=
EXTT5=
EXTT6=
EXTT7=
EXTT8=
EXTT9=
EXTT10=
EXTT11=
EXTT12=
EXTT13=
EXTT14=
EXTT15=
EXTT16=
PLAYORDER=
